<svg width="24" height="24" viewBox="0 0 24 24" fill="none" xmlns="http://www.w3.org/2000/svg">
<g clip-path="url(#clip0_4_120)">
<path d="M19.006 10H17.746C17.3718 8.551 16.5988 7.23599 15.5146 6.2044C14.4305 5.1728 13.0787 4.46599 11.6129 4.16428C10.1471 3.86256 8.62606 3.97804 7.22262 4.49759C5.81918 5.01714 4.58961 5.91993 3.67362 7.10338C2.75763 8.28683 2.19196 9.70348 2.04088 11.1924C1.88979 12.6812 2.15936 14.1826 2.81895 15.526C3.47853 16.8693 4.50169 18.0007 5.77215 18.7916C7.04262 19.5824 8.50945 20.0011 10.006 20H19.006C20.3321 20 21.6038 19.4732 22.5415 18.5355C23.4792 17.5979 24.006 16.3261 24.006 15C24.006 13.6739 23.4792 12.4021 22.5415 11.4645C21.6038 10.5268 20.3321 10 19.006 10Z" stroke="white" stroke-linecap="round" stroke-linejoin="round"/>
</g>
<defs>
<clipPath id="clip0_4_120">
<rect width="24" height="24" fill="white"/>
</clipPath>
</defs>
</svg>
