<svg width="63" height="70" viewBox="0 0 63 70" fill="none" xmlns="http://www.w3.org/2000/svg">
<g filter="url(#filter0_di_4_156)">
<path d="M55.125 26.25C55.125 44.625 31.5 60.375 31.5 60.375C31.5 60.375 7.875 44.625 7.875 26.25C7.875 19.9843 10.3641 13.9751 14.7946 9.5446C19.2251 5.11405 25.2343 2.625 31.5 2.625C37.7657 2.625 43.7748 5.11405 48.2054 9.5446C52.6359 13.9751 55.125 19.9843 55.125 26.25Z" fill="white" stroke="white" stroke-width="2" stroke-linecap="round" stroke-linejoin="round"/>
<path d="M31.5 34.125C35.8492 34.125 39.375 30.5992 39.375 26.25C39.375 21.9008 35.8492 18.375 31.5 18.375C27.1508 18.375 23.625 21.9008 23.625 26.25C23.625 30.5992 27.1508 34.125 31.5 34.125Z" fill="#48319D" stroke="white" stroke-width="2" stroke-linecap="round" stroke-linejoin="round"/>
</g>
<defs>
<filter id="filter0_di_4_156" x="-4" y="0" width="71" height="71" filterUnits="userSpaceOnUse" color-interpolation-filters="sRGB">
<feFlood flood-opacity="0" result="BackgroundImageFix"/>
<feColorMatrix in="SourceAlpha" type="matrix" values="0 0 0 0 0 0 0 0 0 0 0 0 0 0 0 0 0 0 127 0" result="hardAlpha"/>
<feOffset dy="4"/>
<feGaussianBlur stdDeviation="2"/>
<feComposite in2="hardAlpha" operator="out"/>
<feColorMatrix type="matrix" values="0 0 0 0 0 0 0 0 0 0 0 0 0 0 0 0 0 0 0.25 0"/>
<feBlend mode="normal" in2="BackgroundImageFix" result="effect1_dropShadow_4_156"/>
<feBlend mode="normal" in="SourceGraphic" in2="effect1_dropShadow_4_156" result="shape"/>
<feColorMatrix in="SourceAlpha" type="matrix" values="0 0 0 0 0 0 0 0 0 0 0 0 0 0 0 0 0 0 127 0" result="hardAlpha"/>
<feOffset dx="1" dy="1"/>
<feGaussianBlur stdDeviation="2"/>
<feComposite in2="hardAlpha" operator="arithmetic" k2="-1" k3="1"/>
<feColorMatrix type="matrix" values="0 0 0 0 1 0 0 0 0 1 0 0 0 0 1 0 0 0 0.25 0"/>
<feBlend mode="normal" in2="shape" result="effect2_innerShadow_4_156"/>
</filter>
</defs>
</svg>
