<svg width="66" height="66" viewBox="0 0 66 66" fill="none" xmlns="http://www.w3.org/2000/svg">
<g filter="url(#filter0_d_3_36)">
<path d="M45.3753 10.671C45.9714 10.0749 46.679 9.60207 47.4578 9.27948C48.2366 8.9569 49.0713 8.79086 49.9143 8.79086C50.7572 8.79086 51.5919 8.9569 52.3707 9.27948C53.1495 9.60207 53.8572 10.0749 54.4532 10.671C55.0493 11.267 55.5221 11.9746 55.8447 12.7534C56.1673 13.5322 56.3333 14.3669 56.3333 15.2099C56.3333 16.0528 56.1673 16.8876 55.8447 17.6663C55.5221 18.4451 55.0493 19.1528 54.4532 19.7488L23.8154 50.3867L11.3333 53.7909L14.7375 41.3088L45.3753 10.671Z" stroke="white" stroke-width="2" stroke-linecap="round" stroke-linejoin="round" shape-rendering="crispEdges"/>
</g>
<defs>
<filter id="filter0_d_3_36" x="0.333313" y="0.790863" width="65" height="65" filterUnits="userSpaceOnUse" color-interpolation-filters="sRGB">
<feFlood flood-opacity="0" result="BackgroundImageFix"/>
<feColorMatrix in="SourceAlpha" type="matrix" values="0 0 0 0 0 0 0 0 0 0 0 0 0 0 0 0 0 0 127 0" result="hardAlpha"/>
<feOffset dx="-1" dy="2"/>
<feGaussianBlur stdDeviation="4.5"/>
<feComposite in2="hardAlpha" operator="out"/>
<feColorMatrix type="matrix" values="0 0 0 0 0 0 0 0 0 0 0 0 0 0 0 0 0 0 0.25 0"/>
<feBlend mode="normal" in2="BackgroundImageFix" result="effect1_dropShadow_3_36"/>
<feBlend mode="normal" in="SourceGraphic" in2="effect1_dropShadow_3_36" result="shape"/>
</filter>
</defs>
</svg>
