<svg width="25" height="29" viewBox="0 0 25 29" fill="none" xmlns="http://www.w3.org/2000/svg">
<g clip-path="url(#clip0_4_84)">
<path d="M15.2917 18.6267V5.02083C15.2917 4.21966 15.0173 3.4513 14.5289 2.88478C14.0405 2.31827 13.3782 2 12.6875 2C11.9968 2 11.3345 2.31827 10.8461 2.88478C10.3577 3.4513 10.0833 4.21966 10.0833 5.02083V18.6267C9.24716 19.2747 8.61284 20.2176 8.27403 21.3159C7.93523 22.4143 7.90992 23.6099 8.20183 24.7262C8.49374 25.8425 9.08741 26.8204 9.89514 27.5153C10.7029 28.2102 11.6819 28.5853 12.6875 28.5853C13.6931 28.5853 14.6721 28.2102 15.4799 27.5153C16.2876 26.8204 16.8813 25.8425 17.1732 24.7262C17.4651 23.6099 17.4398 22.4143 17.101 21.3159C16.7622 20.2176 16.1278 19.2747 15.2917 18.6267Z" stroke="white" stroke-width="1.5" stroke-linecap="round" stroke-linejoin="round"/>
</g>
<defs>
<clipPath id="clip0_4_84">
<rect width="25" height="29" fill="white"/>
</clipPath>
</defs>
</svg>
